<svg xmlns="http://www.w3.org/2000/svg" viewBox="0 0 272.37 64.75"><defs><style>.cls-1{fill:#111}</style></defs><g id="레이어_2" data-name="레이어 2"><g id="Layer_1" data-name="Layer 1"><path d="M262,24.36H258V32.3h-4.44V24.36H249.4V32.3h-5.91V36h28.88V32.3H262.23V24.36Z" class="cls-1"/><path d="M269.79,28.14V11.77h-25v3.7h20.84V28.14Z" class="cls-1"/><path d="M71.14,33.58c0,4.15,3.75,7.52,8.36,7.52s8.39-3.37,8.39-7.52-3.76-7.53-8.39-7.53S71.14,29.43,71.14,33.58Zm4,0a4.45,4.45,0,0,1,8.85,0,4.45,4.45,0,0,1-8.85,0Z" class="cls-1"/><path d="M87.73,11.15H83.84v4.74H78.91v3.68h4.93v6.22H88V11.15Z" class="cls-1"/><path d="M69,11.06,58.72,23c.32.27,2.92,2.39,3.24,2.64.29-.36,7.25-8.69,7.25-8.69s6.52,7.92,6.8,8.28l3.25-2.64-10-11.8Z" class="cls-1"/><path d="M172,32.36h17.46v6.39h4.24V23.29h2.46V38.73h4.2V11.08h-4.2v8.5h-2.46v-8.5h-4.24V28.64H176.13V15.13H186v-3.5H172Z" class="cls-1"/><path d="M124.79,22.51h-1.45V11.58H98.11v3.76h21v7.17H96.22v3.74h9v4.92h4.29V26.25h3.83v4.92h4.29V26.25h7.45V22.51Zm-22.44,6.32H98.12v9.84h25.75V34.92H102.35Z" class="cls-1"/><path d="M139.12,28.83H134.9v9.84h25.94V34.92H139.12Zm21.51-12.92V11.08h-4.22V22.51h-4.29V11.58h-18v3.76h13.76v7.17h-4.25v-4h-4.3v4h-6.54v3.76h23.62v4.38h4.22v-11H165V15.91Z" class="cls-1"/><path d="M235.28,11.09h-3.9V27.36h4.18V19.51h4.24V15.83h-4.24V11.09Z" class="cls-1"/><path d="M235.24,29.29h-26V33h22.13v5.67h4.18V29.29Z" class="cls-1"/><path d="M227.06,11.59h-7.78V9H215v2.56h-7.88v3.54H210a7.75,7.75,0,0,0-1.28,4.24,8.5,8.5,0,0,0,17,0,7.75,7.75,0,0,0-1.28-4.24h2.65Zm-9.75,11.72a4,4,0,0,1-4.06-3.85,4.07,4.07,0,0,1,8.12,0A4,4,0,0,1,217.31,23.31Z" class="cls-1"/><path d="M250.91,46.63l-.75,1.26a2.33,2.33,0,0,0-1.94-1.31,1.5,1.5,0,0,0-1.72,1.47c0,1.15,1.06,1.55,2.26,2s2.63,1.28,2.76,2.9c.17,1.95-1.53,3.31-3.91,3.26a4.5,4.5,0,0,1-3.46-1.61l.64-1.49A3.49,3.49,0,0,0,248,55.25a1.8,1.8,0,0,0,1.91-1.88c0-1.16-1-1.54-2.19-2s-2.77-1.07-2.82-2.92,1.34-2.92,3.56-2.86A3.76,3.76,0,0,1,250.91,46.63Z" class="cls-1"/><path d="M71.87,46.63l-.75,1.26a2.33,2.33,0,0,0-1.94-1.31,1.5,1.5,0,0,0-1.72,1.47c0,1.15,1.07,1.55,2.25,2s2.64,1.28,2.77,2.9c.16,1.95-1.53,3.31-3.91,3.26a4.5,4.5,0,0,1-3.46-1.61l.64-1.49A3.49,3.49,0,0,0,69,55.25a1.8,1.8,0,0,0,1.91-1.88c0-1.16-1-1.54-2.19-2s-2.77-1.07-2.83-2.92,1.35-2.92,3.57-2.86A3.76,3.76,0,0,1,71.87,46.63Z" class="cls-1"/><path d="M104.94,46.73l-.12-.08a7.12,7.12,0,0,0-3.79-1c-3.47,0-5.61,2.06-5.61,5.24s2,5.19,5.41,5.19a11.94,11.94,0,0,0,3.91-.66l.12,0v-4h-1.61V54.8a4.82,4.82,0,0,1-2,.42c-2.63,0-4.06-1.55-4.06-4.36,0-2.64,1.39-4.27,3.8-4.27a4.45,4.45,0,0,1,3.23,1.35l.06.06Z" class="cls-1"/><path d="M124.08,45.88H122.5l-2.59,4.63-2.61-4.63h-2l3.64,5.86V56h1.6V51.61Z" class="cls-1"/><path d="M271.45,45.88h-1.57l-2.61,4.63-2.6-4.63h-2l3.63,5.86V56h1.6V51.61Z" class="cls-1"/><path d="M111.57,50.55l4.65-4.67h-1.64l-4.37,4.39V45.88H108.6V56h1.62V51.07L114.3,56h2Z" class="cls-1"/><path d="M151.62,50.55l4.64-4.67h-1.64l-4.36,4.39c0-.31,0-4.39,0-4.39h-1.62V56h1.62V51.07L154.35,56h2.05Z" class="cls-1"/><polygon points="159.08 55.95 160.29 55.95 162.97 48.22 165.47 55.95 166.85 55.95 170.21 45.88 168.82 45.88 166.12 53.84 163.54 45.88 162.62 45.88 159.95 53.83 157.56 45.88 155.85 45.88 159.08 55.95" class="cls-1"/><path d="M174.13,45.74h-.71l-4.33,10.2h1.39l1.58-3.83h3.11L176.7,56h1.9ZM173.6,48c.25.56,1,2.76,1.2,3.14h-2.47Z" class="cls-1"/><rect width="1.6" height="10.07" x="216.4" y="45.88" class="cls-1"/><rect width="1.6" height="10.07" x="253.32" y="45.88" class="cls-1"/><path d="M201.36,51.52c0,2.48-1,3.6-2.94,3.6-2.16,0-2.91-1-2.91-3.61V45.89h-1.59v5.76a4.47,4.47,0,0,0,1.07,3.4,4.73,4.73,0,0,0,3.31,1.07c2.7,0,4.21-1.49,4.21-4.25v-6h-1.15Z" class="cls-1"/><path d="M132.12,51.52c0,2.48-1,3.6-3,3.6-2.15,0-2.9-1-2.9-3.61V45.89h-1.59v5.76a4.51,4.51,0,0,0,1.07,3.4,4.74,4.74,0,0,0,3.31,1.07c2.7,0,4.21-1.49,4.21-4.25v-6h-1.15Z" class="cls-1"/><path d="M81.34,51.52c0,2.48-1,3.6-3,3.6-2.16,0-2.89-1-2.89-3.61V45.89H73.9v5.76A4.51,4.51,0,0,0,75,55.05a4.74,4.74,0,0,0,3.31,1.12c2.7,0,4.21-1.54,4.21-4.3v-6H81.33Z" class="cls-1"/><polygon points="223.21 55.95 224.12 55.95 228.35 45.88 226.9 45.88 223.72 53.89 220.55 45.88 218.75 45.88 223.21 55.95" class="cls-1"/><path d="M230.8,54.79V51.1h3.49v-1H230.8V46.75h3.81v-.87H229.2V56h5.5V54.79Z" class="cls-1"/><path d="M256,45.88v.84h3.13V56h1.6V46.72h3v-.85Z" class="cls-1"/><path d="M236.71,56h1.6v-4.9l4.32,4.9h1.71L240,51.07a3,3,0,0,0,3.13-2.68c0-1.66-1-2.51-3.28-2.51h-3.18Zm1.6-5.84V46.75h1.53a1.54,1.54,0,0,1,1.76,1.65c0,1-.53,1.66-2,1.71Z" class="cls-1"/><path d="M93.65,45.88H92.5v7.17c-2.5-2.67-7-7.17-7-7.17h-.82V56h1.15V48.41L93,56h.69Z" class="cls-1"/><path d="M144.54,45.88h-1.15v7.17c-2.5-2.67-6.95-7.17-6.95-7.17h-.82V56h1.15V48.41L143.85,56h.69Z" class="cls-1"/><path d="M188.33,45.88h-1.15v7.17c-2.5-2.67-7-7.17-7-7.17h-.81V56h1.15V48.41L187.65,56h.69Z" class="cls-1"/><path d="M213.8,45.88h-1.15v7.17c-2.5-2.67-7-7.17-7-7.17h-.82V56H206V48.41L213.11,56h.69Z" class="cls-1"/><path d="M10.72,55.67A26.33,26.33,0,0,1,7.25,52C1.52,45.6-5,28.74,5.87,13.45a31.76,31.76,0,0,1,49-3.54,1.24,1.24,0,0,1,.06,1.81c-.65.55-1.24.27-2.55-.11a13.41,13.41,0,0,0-5.7-.5c-4.39.57-8.19,4.63-7.67,10.32.48,5.19,4.48,8.94,7.29,11.41,9.87,8.69,6.57,18,5.77,20.06-2.73,6.94-9.72,11.85-18.79,11.85A27.8,27.8,0,0,1,18.62,60.3c-.22-.09-.42-.38-.17-.84a30.48,30.48,0,0,1,2.92-5,18,18,0,0,0,12.4,6.28c7,.26,11.45-3.51,13.1-8.3,1.85-5.37-.12-10.85-5.32-15.79-4.49-4.26-8.49-8.21-8.73-15C32.53,13,40.06,7.86,47.06,8.2c.22,0-9.68-7.13-22.38-2.88A26.52,26.52,0,0,0,13,13.16a.52.52,0,0,0,0,.7c.2.29,4.52,6.31,4.52,6.31L9.68,18.38a.45.45,0,0,0-.48.18,26.68,26.68,0,0,0,2,27.85s6.94-11,20.71-11.92c.92-.06.8.26.2.48C19.82,39.49,15,48.52,11.83,55.48A.67.67,0,0,1,10.72,55.67Z" class="cls-1"/><path d="M23.4,47.19s.76-.34,1-.46v5.33h1V45.79l-.16-.11-.05,0c-.7.34-1.42.67-2,.92Z" class="cls-1"/><path d="M28.52,48.93c.79,0,1.17.4,1.17,1.23a1.28,1.28,0,0,1-1.34,1.39A1.57,1.57,0,0,1,27.21,51l-.11-.14-.24.83.08,0a3,3,0,0,0,1.39.33,2.14,2.14,0,0,0,2.38-2,1.43,1.43,0,0,0-1.32-1.45,1.56,1.56,0,0,0,1-1.47c0-.88-.69-1.42-1.8-1.43a1.88,1.88,0,0,0-1.43.61l.41.72.07-.2a1,1,0,0,1,.91-.65c.4,0,.86.26.86,1,0,.58-.15,1.27-.92,1.27l-.49,0V49A2,2,0,0,1,28.52,48.93Z" class="cls-1"/><path d="M32,50.79l.26,1a2.1,2.1,0,0,0,1,.23C34.85,52,36,50.53,36,48.36c0-2.41-1.47-2.67-2.1-2.67a2,2,0,0,0-2.08,2,1.72,1.72,0,0,0,1.83,1.88A1.64,1.64,0,0,0,35,48.93c-.07,1.35-.6,2.58-1.69,2.58A1.45,1.45,0,0,1,32,50.79Zm1.76-1.74c-.68,0-1-.44-1-1.35s.44-1.53,1.09-1.53,1.09.52,1.09,1.3S34.56,49.05,33.78,49.05Z" class="cls-1"/><path d="M39.81,48.43a1.45,1.45,0,0,0,.9-1.33c0-.65-.47-1.41-1.8-1.41a1.62,1.62,0,0,0-1.77,1.52,1.35,1.35,0,0,0,.91,1.26,1.78,1.78,0,0,0-1.23,1.72A1.88,1.88,0,0,0,38.91,52,2,2,0,0,0,41,50,1.54,1.54,0,0,0,39.81,48.43Zm-1.75-1.21c0-.25.06-1,.86-1s.87.73.87,1-.06,1-.87,1S38.06,47.46,38.06,47.22Zm.85,4.33c-.66,0-1.11-.56-1.11-1.4s.45-1.4,1.11-1.4,1.11.56,1.11,1.4S39.59,51.55,38.91,51.55Z" class="cls-1"/></g></g></svg>