<svg width="241" height="57" viewBox="0 0 241 57" fill="none" xmlns="http://www.w3.org/2000/svg">
<path d="M34.4768 56.4001C37.711 55.6085 39.9697 54.324 42.4266 51.879C47.4553 46.8748 48.5351 40.6597 45.4661 34.3843C44.8947 33.216 43.4485 31.4729 40.6985 28.638C35.9893 23.7833 34.9115 21.9992 34.6927 18.6964C34.4491 15.0185 35.8056 12.3543 38.7073 10.8116C40.7892 9.70477 42.5096 9.54255 45.7006 10.1523C48.6677 10.7192 49.1996 10.5715 48.8712 9.27175C48.6354 8.33896 45.3471 5.58176 42.4246 3.86642C29.4733 -3.73535 12.8537 0.194223 4.52561 12.8274C2.56087 15.8077 1.23274 19.0455 0.460249 22.7382C-0.915904 29.3164 0.875628 38.0978 4.7437 43.7343C5.965 45.514 9.47519 49.1774 9.95911 49.1774C10.1562 49.1774 11.0396 47.7627 11.9222 46.0336C15.2981 39.4201 19.3431 35.2977 25.4353 32.2616C27.3715 31.2967 28.852 30.4464 28.7253 30.372C28.3345 30.1426 25.0148 30.7013 22.8122 31.3672C18.7845 32.5849 14.8319 35.1691 11.662 38.6569L9.8807 40.617L9.28138 39.7735C5.45304 34.3854 4.52948 25.6017 7.08276 18.8631C8.15409 16.0356 7.979 16.1098 11.5963 16.9514C13.3235 17.3532 14.9043 17.6844 15.109 17.6874C15.3138 17.6909 14.5319 16.3895 13.3716 14.7967L11.2618 11.9007L13.5018 9.7881C16.1385 7.30123 19.9484 5.20589 23.4512 4.31623C26.5648 3.5254 31.5973 3.51927 34.6812 4.30221C37.0248 4.89744 40.6941 6.41671 41.0086 6.92199C41.1174 7.0967 40.4754 7.27982 39.4217 7.3747C34.7514 7.79527 30.5787 11.2861 29.4072 15.7528C28.8204 17.9901 28.843 19.7031 29.4919 22.1719C30.2519 25.0631 31.6629 27.1362 35.8227 31.4737C39.8743 35.6983 41.2002 37.7379 41.8029 40.673C42.7421 45.2471 40.3011 50.0531 35.9608 52.1751C34.3856 52.9452 33.5738 53.1387 31.4027 53.2616C27.309 53.4934 24.1038 52.3717 20.6109 49.485L18.8098 47.9965L18.2323 48.8095C17.9147 49.2567 17.2894 50.3427 16.8429 51.2228C15.9192 53.0432 15.7846 52.826 18.7874 54.3602C23.8209 56.932 29.3601 57.6521 34.4768 56.3997V56.4001ZM63.5394 48.4639C64.9059 46.8863 64.2593 45.3235 61.6962 44.0082C59.873 43.0727 59.4027 42.3768 60.0611 41.589C60.5319 41.0256 61.8122 41.0373 62.4502 41.6107C62.8949 42.0104 62.9977 42.0119 63.3221 41.623C63.8295 41.0158 63.5134 40.6386 62.1595 40.2357C61.1744 39.9427 60.8361 39.9742 59.8556 40.4503C57.5389 41.5754 57.7209 43.7979 60.2299 45.0183C62.8261 46.2811 63.2582 46.9286 62.246 48.0394C61.5005 48.8575 60.2216 48.7147 59.0362 47.6812C58.0374 46.8103 57.9958 46.8007 57.8048 47.3984C57.3924 48.6886 58.8278 49.5161 61.2215 49.3682C62.5432 49.2864 62.9711 49.1194 63.5394 48.4632V48.4639ZM72.0388 48.3543C72.9728 47.3161 73.3109 45.4973 73.1551 42.3487C73.0781 40.7942 72.9584 40.4019 72.5363 40.322C72.0672 40.2333 72.0129 40.5191 72.0129 43.0761C72.0129 45.9033 71.5957 47.6594 70.8096 48.142C70.6077 48.2658 69.8967 48.3672 69.2297 48.3672C67.2491 48.3672 66.9283 47.7096 66.9283 43.6494V40.2666H66.1806H65.4329V43.7908C65.4329 46.9412 65.5007 47.4007 66.0723 48.1224C66.9432 49.2218 67.6914 49.4866 69.5956 49.3689C70.9617 49.2845 71.3452 49.1252 72.0388 48.3543ZM76.2002 46.0553C76.3081 43.6993 76.4329 42.9277 76.6488 43.2819C77.4056 44.5232 82.5574 49.5173 82.8161 49.2604C82.9724 49.1052 83.0595 47.0901 83.013 44.7023C82.939 40.9009 82.8712 40.4113 82.4063 40.3227C81.9345 40.2329 81.8815 40.5402 81.8692 43.4378L81.8551 46.6526L78.8031 43.4547C77.1245 41.6958 75.5828 40.259 75.3772 40.2617C75.0943 40.2652 75.0033 41.3923 75.0033 44.8922C75.0033 49.1374 75.0464 49.5097 75.5268 49.4186C75.9762 49.3334 76.0713 48.8581 76.1998 46.0553H76.2002ZM92.4259 49.0185C92.8422 48.858 92.9493 48.4585 92.9493 47.0664C92.9493 45.3195 92.9475 45.316 92.052 45.316C91.1752 45.316 91.1547 45.3497 91.1547 46.7955C91.1547 48.1269 91.0797 48.2936 90.4051 48.4618C88.2601 48.9964 86.3979 47.7011 86.1482 45.5007C85.9476 43.7329 86.2265 42.7458 87.1728 41.8749C88.198 40.9314 90.4116 40.8738 91.5475 41.7611C92.3185 42.3633 92.3206 42.3633 92.6397 41.7716C92.913 41.2644 92.8306 41.1122 92.0719 40.7226C91.5727 40.4662 90.4235 40.2668 89.4452 40.2668C86.256 40.2668 84.4391 41.9385 84.4544 44.8586C84.4703 48.0451 86.3947 49.6187 89.9584 49.3611C91.0276 49.2837 92.138 49.1298 92.4259 49.0188V49.0185ZM97.7348 47.4418L97.8844 45.5577L99.6235 47.516C100.871 48.9203 101.569 49.4743 102.091 49.4743C102.492 49.4743 102.819 49.3886 102.819 49.2836C102.819 49.1787 102.18 48.3629 101.399 47.4707C100.617 46.5786 99.7237 45.518 99.4129 45.1139L98.8477 44.3791L100.449 42.7684C101.33 41.8825 102.137 41.1576 102.242 41.1576C102.347 41.1576 103.059 42.1637 103.823 43.3933C105.101 45.45 105.212 45.7829 105.212 47.5517C105.212 49.4045 105.239 49.4743 105.96 49.4743C106.684 49.4743 106.708 49.4103 106.708 47.4647C106.708 45.5699 106.793 45.3195 108.197 43.0836C109.015 41.7793 109.688 40.6119 109.692 40.4893C109.695 40.3667 109.396 40.2667 109.026 40.267C108.504 40.2673 108.117 40.7024 107.306 42.1972C106.73 43.2586 106.192 44.1237 106.109 44.1195C106.027 44.116 105.488 43.2802 104.911 42.2635C103.935 40.5418 103.783 40.4086 102.697 40.3202C101.619 40.2323 101.391 40.3637 99.6496 42.0776L97.7677 43.9299L97.6765 42.1725C97.5907 40.5201 97.5407 40.4151 96.8376 40.4151H96.0899L96.0063 44.5591C95.9604 46.8384 95.994 48.8861 96.0798 49.1096C96.1662 49.3331 96.5403 49.4732 96.9111 49.4209C97.5108 49.3364 97.602 49.1173 97.735 47.4418H97.7348ZM116.086 49.0289C117.641 48.2964 117.893 47.6088 118.021 43.7566C118.131 40.4156 118.11 40.2666 117.532 40.2666C116.967 40.2666 116.922 40.4867 116.828 43.6749C116.737 46.7458 116.66 47.1496 116.051 47.7539C115.554 48.2464 115.051 48.4161 114.155 48.3928C112.176 48.3412 111.957 47.9087 111.842 43.8211C111.743 40.2878 111.738 40.2666 111.019 40.2666C110.298 40.2666 110.297 40.2718 110.301 43.6081C110.305 45.6772 110.448 47.2324 110.679 47.6922C111.46 49.2451 114.194 49.9208 116.086 49.0289ZM121.072 46.1328L121.081 42.7913L124.288 46.1438C126.052 47.9877 127.596 49.4914 127.719 49.4854C127.843 49.4801 127.943 47.4026 127.943 44.8704C127.943 40.4646 127.918 40.2666 127.345 40.2666C126.786 40.2666 126.747 40.4646 126.747 43.3058V46.345L123.676 43.3058C121.987 41.6342 120.44 40.2666 120.237 40.2666C119.961 40.2666 119.868 41.3783 119.868 44.6724C119.868 47.0957 119.958 49.1674 120.067 49.2763C120.177 49.3853 120.446 49.4743 120.666 49.4743C120.974 49.4743 121.066 48.7152 121.073 46.1328H121.072ZM133.089 47.3747L133.177 45.275L134.915 47.3747C136.35 49.1091 136.805 49.4743 137.532 49.4743C138.015 49.4743 138.405 49.3742 138.398 49.2516C138.391 49.129 137.455 48.0263 136.317 46.8011L134.249 44.5734L136.106 42.7062L137.963 40.839L139.367 45.0824C141.154 50.4848 141.417 50.5761 142.898 46.3053C143.473 44.6441 144.031 43.199 144.137 43.0941C144.243 42.9892 144.785 44.3484 145.341 46.1146C146.178 48.7725 146.462 49.3415 146.987 49.4168C147.556 49.4984 147.77 49.0662 149.043 45.2584C149.824 42.9213 150.529 40.8303 150.611 40.6117C150.713 40.335 150.541 40.2448 150.043 40.3147C149.421 40.402 149.175 40.8589 148.147 43.8309L146.966 47.2466L145.891 43.8325C144.445 39.2377 144.18 39.2265 142.699 43.6962L141.552 47.1596L140.493 43.7873L139.435 40.4151L138.128 40.3214C136.879 40.232 136.738 40.3109 134.925 42.095L133.028 43.9622V42.1144C133.028 40.3414 132.997 40.2665 132.28 40.2665H131.532V44.8704V49.4743H132.267C132.969 49.4743 133.005 49.3826 133.089 47.3746L133.089 47.3747ZM151.685 47.4127C152.228 45.9147 152.234 45.91 153.554 45.91H154.878L155.657 47.6922C156.27 49.097 156.574 49.4743 157.094 49.4743C157.456 49.4743 157.826 49.4019 157.915 49.3133C158.004 49.2247 157.192 47.1484 156.109 44.6993C154.804 41.7467 154.002 40.2748 153.729 40.3308C153.502 40.3772 152.501 42.334 151.505 44.6792C150.071 48.0574 149.778 48.9948 150.099 49.1918C150.683 49.5498 151.068 49.1171 151.685 47.4128V47.4127ZM152.768 44.756C152.768 44.6115 152.956 44.0486 153.186 43.5052L153.604 42.5174L154.083 43.6559C154.691 45.1011 154.717 45.0189 153.665 45.0189C153.171 45.0189 152.768 44.9005 152.768 44.756ZM159.946 46.0553C160.088 42.9572 160.12 42.8255 160.576 43.4649C161.71 45.0544 166.319 49.5019 166.572 49.2507C166.72 49.103 166.805 47.0562 166.759 44.7023C166.685 40.9009 166.617 40.4113 166.152 40.3227C165.68 40.2327 165.628 40.5381 165.622 43.4378L165.615 46.6526L162.556 43.4478C160.873 41.6852 159.329 40.2484 159.123 40.2548C158.84 40.2636 158.749 41.396 158.749 44.8922C158.749 49.1374 158.792 49.5097 159.273 49.4186C159.722 49.3334 159.817 48.8581 159.946 46.0553H159.946ZM178.226 48.3432C179.183 47.28 179.464 45.8283 179.331 42.6459C179.256 40.8668 179.139 40.4027 178.747 40.3284C178.32 40.2476 178.242 40.6806 178.147 43.6605C178.05 46.6905 177.963 47.1594 177.392 47.7264C176.478 48.6341 174.4 48.6193 173.65 47.6997C173.195 47.1416 173.106 46.4779 173.106 43.6493V40.2665H172.358H171.611V43.7647C171.611 46.516 171.715 47.4103 172.098 47.9534C172.821 48.979 174.234 49.5009 175.93 49.3687C177.121 49.2759 177.566 49.0772 178.226 48.3432V48.3432ZM182.385 46.1328L182.392 42.7913L185.553 46.1331C187.292 47.9711 188.837 49.4 188.986 49.3086C189.135 49.217 189.257 47.1452 189.257 44.7044C189.257 40.4646 189.23 40.2666 188.659 40.2666C188.099 40.2666 188.06 40.4646 188.06 43.3058V46.3449L184.99 43.3058C183.301 41.6342 181.753 40.2666 181.55 40.2666C181.274 40.2666 181.181 41.3783 181.181 44.6724C181.181 47.0956 181.271 49.1674 181.381 49.2763C181.49 49.3852 181.76 49.4743 181.979 49.4743C182.287 49.4743 182.379 48.7158 182.385 46.1328H182.385ZM192.846 44.8704V40.2666H192.098H191.351V44.6724C191.351 47.0956 191.44 49.1674 191.55 49.2763C191.66 49.3852 191.996 49.4743 192.298 49.4743C192.806 49.4743 192.846 49.1368 192.846 44.8704ZM200.23 44.8669C201.268 42.4347 202.118 40.4047 202.118 40.356C202.118 40.3072 201.8 40.2674 201.411 40.2674C200.785 40.2674 200.557 40.6551 199.408 43.6641C198.694 45.5323 198.023 47.0073 197.917 46.9419C197.81 46.8764 197.151 45.3479 196.453 43.5451C195.241 40.4188 195.142 40.2674 194.317 40.2674H193.452L194.218 41.9753C194.639 42.9146 195.326 44.4851 195.743 45.4653C196.978 48.3645 197.642 49.521 198.003 49.4017C198.19 49.34 199.192 47.2993 200.23 44.867V44.8669ZM207.745 48.8068C207.831 48.3579 207.597 48.287 206.028 48.287H204.212V46.6534V45.0197H205.857C207.119 45.0197 207.502 44.9162 207.502 44.5742C207.502 44.2321 207.119 44.1286 205.857 44.1286H204.212V42.6435V41.1584H206.031C207.353 41.1584 207.817 41.0568 207.727 40.7871C207.644 40.5404 206.783 40.3869 205.159 40.3296L202.716 40.2433V44.6611C202.716 47.091 202.811 49.1733 202.927 49.2884C203.043 49.4037 204.152 49.4593 205.391 49.4123C207.259 49.3413 207.662 49.2376 207.745 48.8068V48.8068ZM210.895 47.3217C210.869 46.219 210.937 45.325 211.045 45.3351C211.152 45.3456 212.033 46.2808 213.002 47.4142C214.261 48.887 214.966 49.4751 215.47 49.4751C215.858 49.4751 216.175 49.3928 216.175 49.2921C216.175 49.1914 215.373 48.2107 214.393 47.1127L212.611 45.1164L213.565 44.6967C214.774 44.165 215.438 43.0189 215.164 41.935C214.884 40.8297 213.341 40.2128 211.141 40.3275L209.446 40.4159L209.362 44.5599C209.316 46.8391 209.35 48.8868 209.436 49.1104C209.522 49.3339 209.896 49.474 210.267 49.4217C210.896 49.3329 210.938 49.1921 210.895 47.3217L210.895 47.3217ZM210.792 42.6435V41.1584H211.817C213.622 41.1584 214.445 42.7434 213.118 43.6663C212.752 43.9206 212.079 44.1286 211.622 44.1286C210.825 44.1286 210.792 44.0692 210.792 42.6435ZM221.242 49.0386C222.24 48.5262 222.848 47.0826 222.476 46.1102C222.16 45.2868 221.577 44.7903 219.797 43.8304C218.632 43.2017 218.418 42.9491 218.418 42.1968C218.418 41.4417 218.546 41.2924 219.26 41.2111C219.723 41.1584 220.425 41.3254 220.82 41.5823C221.488 42.0167 221.56 42.0091 221.848 41.4734C222.2 40.8199 222.039 40.6597 220.624 40.2567C218.539 39.6628 216.773 40.7458 216.773 42.6187C216.773 43.9241 217.084 44.2591 219.274 45.3167C220.601 45.958 220.824 46.1907 220.905 47.0225C220.981 47.8074 220.86 48.048 220.254 48.3225C219.284 48.7614 218.091 48.447 217.231 47.526C216.648 46.9007 216.515 46.8612 216.359 47.2652C216.034 48.1074 216.158 48.4359 216.998 48.9528C218.014 49.5787 220.108 49.621 221.242 49.0386V49.0386ZM225.597 44.8712V40.4158H224.849H224.101L224.018 44.5599C223.972 46.8391 224.005 48.8868 224.091 49.1103C224.177 49.3339 224.552 49.4739 224.922 49.4217C225.588 49.3278 225.597 49.268 225.597 44.8712H225.597ZM230.764 45.2425L230.848 41.1584H231.843C232.759 41.1584 232.948 41.3357 234.227 43.3941C235.505 45.4507 235.616 45.7837 235.616 47.5524C235.616 49.4053 235.643 49.4751 236.364 49.4751C237.088 49.4751 237.112 49.4111 237.112 47.4654C237.112 45.5707 237.197 45.3202 238.601 43.0843C239.419 41.78 240.092 40.6126 240.096 40.4901C240.1 40.3675 239.8 40.2675 239.43 40.2677C238.908 40.268 238.521 40.7031 237.71 42.198C237.134 43.2594 236.596 44.1271 236.514 44.1262C236.431 44.1253 235.888 43.29 235.307 42.2702L234.249 40.4158H230.397C227.58 40.4158 226.51 40.5156 226.419 40.7871C226.33 41.0517 226.732 41.1584 227.815 41.1584H229.335V45.3374C229.335 49.5013 229.337 49.5161 230.008 49.4215C230.664 49.3291 230.683 49.223 230.764 45.2425H230.764ZM22.3636 43.089C22.3636 41.5371 22.3027 40.2673 22.2282 40.2673C22.1536 40.2673 21.7499 40.4224 21.3309 40.612C20.4899 40.9925 20.318 41.4554 21.0177 41.4554C21.3766 41.4554 21.4664 41.9009 21.4664 43.6831C21.4664 45.4652 21.5561 45.9108 21.915 45.9108C22.2823 45.9108 22.3636 45.3992 22.3636 43.089ZM26.4844 45.4484C27.2808 44.8944 27.3891 43.4004 26.6621 42.9964C26.3291 42.8113 26.2818 42.6602 26.5125 42.5186C26.6981 42.4047 26.85 41.9209 26.85 41.4435C26.85 40.7731 26.6853 40.5346 26.1259 40.3952C25.0385 40.1241 24.3271 40.3533 24.2073 41.0133C24.1206 41.4909 24.1743 41.5329 24.488 41.2326C24.7014 41.0284 25.1182 40.8614 25.4143 40.8614C26.2044 40.8614 26.1519 42.3504 25.3544 42.5574C24.5535 42.7654 24.5952 43.1735 25.4292 43.2911C25.9128 43.3594 26.1021 43.5859 26.1021 44.0963C26.1021 45.0648 25.2493 45.5799 24.4581 45.0893C23.9638 44.7827 23.8589 44.7918 23.8589 45.1409C23.8589 45.9649 25.4702 46.1536 26.4842 45.4483L26.4844 45.4484ZM30.6488 45.4642C31.8841 44.6049 32.2611 41.8192 31.298 40.6668C31.1143 40.447 30.5126 40.2672 29.9608 40.2672C28.7289 40.2672 27.8757 41.3333 28.1713 42.5032C28.3745 43.307 29.5321 43.9305 30.287 43.6428C30.891 43.4126 30.8781 44.2442 30.2682 44.8498C29.7063 45.408 29.1919 45.4442 28.7044 44.9602C28.4253 44.6829 28.3455 44.7104 28.3455 45.0838C28.3455 45.9403 29.6537 46.1563 30.6488 45.4641L30.6488 45.4642ZM29.2686 42.6914C28.8025 41.8264 29.2015 40.8612 30.0254 40.8612C30.6067 40.8612 30.7382 41.0147 30.7382 41.6929C30.7382 43.0549 29.8059 43.6884 29.2686 42.6914ZM35.9387 44.9289C36.5212 44.1507 36.5314 44.0419 36.0929 43.2832C35.7412 42.6745 35.7043 42.3433 35.9458 41.963C36.4368 41.19 35.7995 40.4317 34.5704 40.3264C33.2029 40.2092 32.5928 40.8744 33.0249 42.0115C33.2552 42.6173 33.2321 42.909 32.9319 43.1875C32.3141 43.7606 32.4553 44.9316 33.2056 45.4581C34.1437 46.1163 35.2033 45.9112 35.9386 44.9289H35.9387ZM33.7977 44.9689C32.9949 44.1717 33.7758 42.6667 34.7912 43.0537C35.1172 43.1779 35.2338 43.5314 35.1689 44.1983C35.0686 45.2298 34.4247 45.5916 33.7977 44.9689ZM33.8381 41.9028C33.7344 41.6347 33.7933 41.273 33.9685 41.0989C34.4242 40.6463 35.2876 41.0599 35.1686 41.6738C35.0359 42.3575 34.0776 42.5225 33.8381 41.9028ZM74.0461 35.3974C75.2914 34.7579 76.8072 33.1905 77.2898 32.0433C77.8107 30.8053 77.8107 28.3433 77.2898 27.1053C75.4041 22.6233 68.4961 21.5286 64.8635 25.1361C60.9933 28.9796 63.3589 35.2466 68.993 36.0766C70.6429 36.3197 72.82 36.027 74.0461 35.3974ZM67.6462 31.8317C66.8268 31.0179 66.6293 30.5898 66.6293 29.6268C66.6293 26.4681 70.8468 24.8976 73.1601 27.1948C74.2111 28.2387 74.4845 29.4063 73.9661 30.6382C73.3315 32.1466 72.1744 32.8416 70.2978 32.8416C68.8376 32.8416 68.5546 32.7339 67.6462 31.8317ZM171.312 27.4951V20.6636H172.358H173.405V27.3466V34.0297H175.349H177.293V21.8517V9.67364H175.349H173.405V13.3864V17.0993H172.358H171.312V13.3723V9.6453L169.442 9.7337L167.573 9.82211L167.493 17.4705L167.413 25.1189H161.736H156.058V19.3351V13.5512L160.32 13.4688L164.582 13.3864L164.672 11.827L164.763 10.2676H158.466H152.17V19.4754V28.6832H159.797H167.423V31.3069C167.423 32.7499 167.513 34.0197 167.623 34.1286C167.732 34.2375 168.607 34.3266 169.567 34.3266H171.312L171.312 27.4951ZM109.699 32.396V30.7624H100.128H90.5567V28.0892V25.416H88.6126H86.6685V29.7228V34.0297H98.1835H109.699V32.396ZM142.3 32.396V30.7624H132.729H123.158V28.0892V25.416H121.214H119.27V29.7228V34.0297H130.785H142.3V32.396ZM208.399 29.8713V25.713H196.734H185.07V27.4951V29.2773H194.79H204.511V31.6535V34.0297H206.455H208.399V29.8713ZM241 30.0199V28.3863H236.514H232.027V24.8078V21.2293L230.158 21.3177L228.289 21.4061L228.204 24.8962L228.12 28.3862H226.344H224.569L224.485 24.8962L224.4 21.4061L222.531 21.3177L220.662 21.2293V24.8078V28.3863H217.97H215.278V30.0199V31.6535H228.139H241L241 30.0199ZM96.8376 25.416V23.3368H98.4826H100.128V25.416V27.4952H102.072H104.016V25.416V23.3368H107.306H110.596V21.5547C110.596 19.8518 110.563 19.7725 109.848 19.7725H109.1V15.0201V10.2677H97.8844H86.6685V11.9014V13.535H95.9404H105.212V16.6538V19.7725H95.1926H85.173V21.5547V23.3368H89.0612H92.9494V25.416V27.4952H94.8935H96.8376V25.416ZM142.232 22.237L142.314 17.4243L144.176 17.3361L146.038 17.2478V15.6142V13.9806L144.182 13.8925L142.326 13.8045L142.238 11.8134L142.15 9.82225L140.281 9.73385L138.411 9.64544V14.709V19.7726H136.617H134.822V15.0202V10.2678H126.747H118.671V11.9015V13.5351H124.653H130.635V16.6539V19.7726H128.84H127.046V17.9905V16.2083H125.102H123.158V17.9905V19.7726H120.316H117.475V21.5548V23.337H127.943H138.411V25.2818V27.2266L140.281 27.1382L142.15 27.0498L142.232 22.237ZM238.837 17.6191L238.757 10.4162L227.601 10.3384L216.444 10.2605L216.534 11.972L216.624 13.6836L225.821 13.7621L235.018 13.8407V19.3314V24.8221H236.967H238.917L238.837 17.6191ZM194.623 23.76C195.757 23.4257 196.607 22.8958 197.602 21.9036C199.641 19.8701 200.226 17.3947 199.29 14.7605L198.855 13.535H199.888H200.922V11.9014V10.2677H197.482H194.043V9.07963V7.89153H192.098H190.154V9.07963V10.2677H186.715H183.275V11.9014V13.535H184.479H185.683L185.202 14.4591C184.127 16.5239 184.789 19.8709 186.655 21.8028C188.822 24.0458 191.458 24.6934 194.623 23.76ZM190.26 19.7944C189.193 19.1485 188.529 17.5697 188.827 16.3899C189.13 15.1894 190.88 13.832 192.124 13.832C194.117 13.832 195.837 15.3451 195.837 17.0993C195.837 17.9712 195.068 19.3523 194.277 19.903C193.365 20.5369 191.398 20.4837 190.26 19.7944V19.7944ZM208.399 20.8263V17.4247L210.268 17.3363L212.138 17.2479L212.227 15.54L212.317 13.8321H210.358H208.399V11.7529V9.67372H206.604H204.81V16.9508V24.228H206.604H208.399L208.399 20.8263ZM58.254 18.6587C59.7913 16.8209 61.1466 15.3172 61.2657 15.3172C61.3847 15.3172 62.7413 16.853 64.2801 18.7301C65.8189 20.6072 67.1568 22.1443 67.2532 22.1459C67.3496 22.1474 68.0535 21.6651 68.8174 21.0741C70.1771 20.0221 70.1954 19.9858 69.689 19.3511C67.3813 16.4592 61.3852 9.67718 61.1931 9.74156C61.0606 9.78594 58.9221 12.1613 56.4406 15.0201L51.9289 20.2181L53.3721 21.4665C54.4671 22.4138 54.8928 22.6287 55.137 22.3576C55.3141 22.161 56.7167 20.4965 58.254 18.6587ZM77.9259 16.2825L77.8454 9.82219H76.0508H74.2562L74.1681 11.8144L74.08 13.8065L71.9249 13.8935L69.7699 13.9806V15.6142V17.2478L71.9383 17.3352L74.1067 17.4224V20.0826V22.7428H76.0566H78.0066L77.9259 16.2825Z" fill="white"/>
</svg>
