<svg xmlns="http://www.w3.org/2000/svg" width="25" height="23" fill="none" viewBox="0 0 25 23"><path fill="#fff" d="M12.5 0.375C19.0239 0.375 24.3125 4.497 24.3125 9.58313C24.3125 14.6681 19.0239 18.7901 12.5 18.7901C11.8504 18.7905 11.2014 18.7491 10.5571 18.6664L5.59812 21.9097C5.0345 22.2079 4.83538 22.1753 5.06713 21.4451L6.07062 17.3074C2.83062 15.6649 0.6875 12.8186 0.6875 9.58313C0.6875 4.49813 5.97613 0.375 12.5 0.375ZM19.1454 9.4425L20.7991 7.8405C20.8946 7.7414 20.9478 7.60913 20.9476 7.47155C20.9475 7.33397 20.8939 7.20183 20.7982 7.10296C20.7026 7.00409 20.5723 6.9462 20.4348 6.9415C20.2973 6.9368 20.1633 6.98565 20.0611 7.07775L17.8921 9.177V7.44225C17.8921 7.30142 17.8362 7.16636 17.7366 7.06678C17.637 6.9672 17.502 6.91125 17.3611 6.91125C17.2203 6.91125 17.0852 6.9672 16.9857 7.06678C16.8861 7.16636 16.8301 7.30142 16.8301 7.44225V10.3189C16.8102 10.4009 16.8102 10.4866 16.8301 10.5686V12.1875C16.8301 12.3283 16.8861 12.4634 16.9857 12.563C17.0852 12.6626 17.2203 12.7185 17.3611 12.7185C17.502 12.7185 17.637 12.6626 17.7366 12.563C17.8362 12.4634 17.8921 12.3283 17.8921 12.1875V10.6541L18.3725 10.1895L19.979 12.4766C20.0191 12.5337 20.0701 12.5824 20.129 12.6198C20.1879 12.6572 20.2536 12.6826 20.3223 12.6946C20.3911 12.7066 20.4615 12.705 20.5296 12.6898C20.5977 12.6746 20.6621 12.6461 20.7192 12.606C20.7764 12.5659 20.825 12.5149 20.8624 12.456C20.8998 12.3971 20.9252 12.3314 20.9372 12.2627C20.9493 12.1939 20.9476 12.1235 20.9324 12.0554C20.9172 11.9873 20.8887 11.9228 20.8486 11.8657L19.1454 9.44137V9.4425ZM15.8176 11.607H14.1751V7.45913C14.1688 7.32267 14.1102 7.19389 14.0114 7.09954C13.9126 7.0052 13.7813 6.95256 13.6447 6.95256C13.5081 6.95256 13.3767 7.0052 13.278 7.09954C13.1792 7.19389 13.1205 7.32267 13.1142 7.45913V12.138C13.1142 12.4305 13.3505 12.669 13.6441 12.669H15.8176C15.9585 12.669 16.0935 12.6131 16.1931 12.5135C16.2927 12.4139 16.3486 12.2788 16.3486 12.138C16.3486 11.9972 16.2927 11.8621 16.1931 11.7625C16.0935 11.6629 15.9585 11.607 15.8176 11.607ZM9.2285 10.3785L10.0115 8.45813L10.7292 10.3785H9.2285ZM12.0669 10.9275L12.0691 10.9095C12.0689 10.7757 12.0178 10.647 11.9262 10.5495L10.7495 7.3995C10.7002 7.24939 10.6062 7.11791 10.4802 7.02262C10.3541 6.92733 10.202 6.87278 10.0441 6.86625C9.88509 6.86555 9.72962 6.91329 9.59839 7.00312C9.46716 7.09296 9.36639 7.22062 9.3095 7.36912L7.44087 11.9535C7.4145 12.0181 7.40111 12.0872 7.40145 12.1569C7.40179 12.2267 7.41587 12.2956 7.44287 12.3599C7.46988 12.4242 7.50928 12.4826 7.55884 12.5317C7.60839 12.5807 7.66713 12.6196 7.73169 12.6459C7.79625 12.6723 7.86537 12.6857 7.93511 12.6854C8.00485 12.685 8.07384 12.6709 8.13814 12.6439C8.20243 12.6169 8.26078 12.5775 8.30985 12.528C8.35892 12.4784 8.39775 12.4197 8.42412 12.3551L8.79537 11.4405H11.1241L11.4605 12.3405C11.4834 12.4078 11.5195 12.4698 11.5668 12.5228C11.614 12.5759 11.6715 12.6189 11.7357 12.6494C11.7999 12.6798 11.8695 12.6971 11.9405 12.7001C12.0115 12.7031 12.0824 12.6919 12.149 12.6671C12.2155 12.6422 12.2764 12.6043 12.3281 12.5554C12.3797 12.5066 12.421 12.4479 12.4495 12.3829C12.4781 12.3178 12.4933 12.2477 12.4942 12.1766C12.4951 12.1056 12.4818 12.0351 12.455 11.9692L12.0669 10.9275ZM8.32963 7.46475C8.32963 7.32411 8.27384 7.18922 8.1745 7.08967C8.07516 6.99012 7.94038 6.93405 7.79975 6.93375H4.14913C4.0083 6.93375 3.87323 6.98969 3.77365 7.08928C3.67407 7.18886 3.61812 7.32392 3.61812 7.46475C3.61812 7.60558 3.67407 7.74064 3.77365 7.84022C3.87323 7.93981 4.0083 7.99575 4.14913 7.99575H5.45412V12.1988C5.45412 12.3396 5.51007 12.4746 5.60965 12.5742C5.70923 12.6738 5.8443 12.7298 5.98513 12.7298C6.12596 12.7298 6.26102 12.6738 6.3606 12.5742C6.46018 12.4746 6.51613 12.3396 6.51613 12.1988V7.99575H7.79862C7.93946 7.99575 8.07452 7.93981 8.1741 7.84022C8.27368 7.74064 8.32963 7.60558 8.32963 7.46475Z"/></svg>