<svg xmlns="http://www.w3.org/2000/svg" width="22" height="22" fill="none" viewBox="0 0 22 22"><path stroke="#fff" stroke-linecap="round" stroke-linejoin="round" stroke-width="2" d="M9 11.7864C9.42945 12.3511 9.97736 12.8183 10.6066 13.1564C11.2357 13.4945 11.9315 13.6956 12.6467 13.746C13.3618 13.7964 14.0796 13.6949 14.7513 13.4484C15.4231 13.2019 16.0331 12.8163 16.54 12.3175L19.54 9.36681C20.4508 8.43929 20.9548 7.19704 20.9434 5.90759C20.932 4.61815 20.4061 3.3847 19.4791 2.47289C18.5521 1.56108 17.298 1.04388 15.987 1.03267C14.676 1.02147 13.413 1.51716 12.47 2.41298L10.75 4.09488"/><path stroke="#fff" stroke-linecap="round" stroke-linejoin="round" stroke-width="2" d="M13 9.81925C12.5705 9.25456 12.0226 8.78731 11.3934 8.4492C10.7642 8.11109 10.0684 7.91003 9.35331 7.85966C8.63816 7.80928 7.92037 7.91077 7.24861 8.15724C6.57685 8.4037 5.96684 8.78939 5.45996 9.28812L2.45996 12.2388C1.54917 13.1663 1.04519 14.4086 1.05659 15.698C1.06798 16.9875 1.59382 18.2209 2.52086 19.1327C3.4479 20.0446 4.70197 20.5618 6.01295 20.573C7.32393 20.5842 8.58694 20.0885 9.52996 19.1927L11.24 17.5108"/></svg>