<svg width="22" height="26" viewBox="0 0 22 26" fill="none" xmlns="http://www.w3.org/2000/svg">
<path d="M20.6757 16.2503C21.5205 14.6524 21.961 12.8694 21.9583 11.0591C21.9583 4.95121 17.0429 0 10.9792 0C4.91545 0 1.61056e-05 4.95121 1.61056e-05 11.0591C-0.00442828 13.6679 0.91109 16.1935 2.58335 18.1857L2.59627 18.2019C2.60079 18.2058 2.60466 18.2111 2.60789 18.215H2.58335L9.09852 25.1822C9.34003 25.4404 9.63143 25.6462 9.95479 25.7868C10.2781 25.9275 10.6266 26 10.9789 26C11.3311 26 11.6796 25.9275 12.0029 25.7868C12.3263 25.6462 12.6177 25.4404 12.8592 25.1822L19.375 18.215H19.3505L19.3608 18.2026L19.3621 18.2013C19.4086 18.1453 19.4551 18.0894 19.501 18.0322C19.9489 17.4776 20.3426 16.8806 20.6764 16.2497L20.6757 16.2503ZM10.9818 15.2876C9.95405 15.2876 8.96843 14.8763 8.24173 14.1443C7.51502 13.4123 7.10677 12.4195 7.10677 11.3843C7.10677 10.3492 7.51502 9.35636 8.24173 8.62436C8.96843 7.89237 9.95405 7.48114 10.9818 7.48114C12.0095 7.48114 12.9951 7.89237 13.7218 8.62436C14.4485 9.35636 14.8568 10.3492 14.8568 11.3843C14.8568 12.4195 14.4485 13.4123 13.7218 14.1443C12.9951 14.8763 12.0095 15.2876 10.9818 15.2876Z" fill="white"/>
</svg>
