<svg xmlns="http://www.w3.org/2000/svg" width="25" height="21" fill="none" viewBox="0 0 25 21"><path fill="#fff" d="M24.9 5.42815V16.475C24.9 17.5027 24.4917 18.4883 23.765 19.215C23.0383 19.9417 22.0527 20.35 21.025 20.35H3.97498C2.94726 20.35 1.96164 19.9417 1.23494 19.215C0.508233 18.4883 0.0999756 17.5027 0.0999756 16.475V5.42815L12.1063 12.493C12.2256 12.5634 12.3615 12.6005 12.5 12.6005C12.6385 12.6005 12.7744 12.5634 12.8937 12.493L24.9 5.42815ZM21.025 0.200001C21.9785 0.199851 22.8985 0.551241 23.6091 1.18695C24.3198 1.82265 24.7711 2.69804 24.8767 3.64565L12.5 10.926L0.123226 3.64565C0.228871 2.69804 0.680178 1.82265 1.39081 1.18695C2.10144 0.551241 3.0215 0.199851 3.97498 0.200001H21.025Z"/></svg>