<svg width="23" height="23" viewBox="0 0 23 23" fill="none" xmlns="http://www.w3.org/2000/svg">
<path d="M22.5775 18.0165L17.3292 13.2447C17.0812 13.0192 16.7551 12.8989 16.4201 12.9093C16.085 12.9197 15.767 13.0598 15.5333 13.3002L12.4438 16.4775C11.7001 16.3355 10.2051 15.8694 8.66609 14.3343C7.12712 12.7941 6.66104 11.2952 6.5229 10.5567L9.69766 7.46586C9.93834 7.23234 10.0787 6.91434 10.0891 6.57916C10.0994 6.24398 9.97897 5.91792 9.75318 5.66998L4.98264 0.423073C4.75676 0.174357 4.44281 0.0234927 4.10749 0.00251989C3.77216 -0.018453 3.44186 0.0921183 3.18675 0.31075L0.385106 2.71343C0.161893 2.93745 0.0286639 3.2356 0.0106927 3.55133C-0.00867353 3.8741 -0.377922 11.5198 5.55072 17.451C10.7228 22.6217 17.2014 23 18.9857 23C19.2465 23 19.4066 22.9923 19.4492 22.9897C19.7649 22.972 20.0629 22.8382 20.2858 22.614L22.6872 19.8111C22.9067 19.5568 23.0181 19.2267 22.9976 18.8914C22.9771 18.5561 22.8263 18.2421 22.5775 18.0165Z" fill="white"/>
</svg>
