<svg width="175" height="205" viewBox="0 0 175 205" fill="null" xmlns="http://www.w3.org/2000/svg">
<path d="M123.241 202.595C134.802 199.752 142.876 195.137 151.659 186.355C169.634 168.379 173.494 146.054 162.523 123.512C160.481 119.315 155.312 113.054 145.481 102.871C128.648 85.4321 124.795 79.0235 124.013 67.1594C123.142 53.948 127.991 44.3781 138.363 38.8365C145.806 34.8606 151.955 34.2779 163.362 36.468C173.968 38.5046 175.869 37.974 174.695 33.3051C173.853 29.9544 162.098 20.0503 151.651 13.8886C105.356 -13.4178 45.947 0.697663 16.1773 46.0773C9.15409 56.783 4.40656 68.4136 1.64522 81.678C-3.27399 105.308 3.12997 136.851 16.9568 157.098C21.3225 163.491 33.87 176.65 35.5998 176.65C36.3043 176.65 39.4622 171.569 42.6171 165.358C54.6849 141.601 69.1438 126.793 90.9213 115.887C97.8424 112.421 103.135 109.367 102.682 109.1C101.285 108.275 89.4182 110.282 81.5448 112.674C67.1473 117.049 53.0181 126.331 41.6872 138.86L35.3196 145.901L33.1773 142.871C19.4924 123.516 16.1911 91.9642 25.318 67.7581C29.1476 57.6017 28.5218 57.8681 41.4521 60.8912C47.6263 62.3347 53.2769 63.5244 54.0088 63.535C54.7408 63.5473 51.9459 58.873 47.7981 53.1514L40.2566 42.7487L48.2635 35.1599C57.689 26.2268 71.3079 18.7001 83.8288 15.5044C94.9589 12.6636 112.948 12.6416 123.972 15.4539C132.349 17.592 145.466 23.0494 146.59 24.8644C146.979 25.492 144.684 26.1498 140.917 26.4906C124.223 28.0013 109.307 40.5408 105.119 56.5856C103.022 64.6221 103.102 70.7756 105.422 79.6436C108.139 90.0292 113.182 97.4762 128.052 113.057C142.535 128.232 147.275 135.558 149.429 146.102C152.786 162.532 144.061 179.796 128.546 187.418C122.915 190.185 120.013 190.88 112.252 191.321C97.6191 192.154 86.1616 188.125 73.6759 177.755L67.2377 172.408L65.1734 175.329C64.0381 176.935 61.8029 180.836 60.2066 183.998C56.9048 190.537 56.4238 189.757 67.1574 195.268C85.1504 204.506 104.951 207.092 123.241 202.594V202.595ZM79.9412 154.78C79.9412 149.206 79.7234 144.644 79.457 144.644C79.1905 144.644 77.7473 145.201 76.2496 145.883C73.2433 147.25 72.6289 148.912 75.1301 148.912C76.4131 148.912 76.7338 150.513 76.7338 156.914C76.7338 163.316 77.0546 164.916 78.3375 164.916C79.6505 164.916 79.9412 163.079 79.9412 154.78ZM94.6713 163.255C97.5182 161.265 97.9052 155.899 95.3064 154.448C94.1161 153.783 93.947 153.24 94.7717 152.731C95.4352 152.322 95.9781 150.584 95.9781 148.87C95.9781 146.461 95.3897 145.605 93.3898 145.104C89.5029 144.13 86.96 144.953 86.5317 147.324C86.2217 149.04 86.4135 149.191 87.535 148.112C88.2978 147.379 89.7878 146.778 90.8463 146.778C93.6707 146.778 93.483 152.127 90.6322 152.871C87.7693 153.618 87.9181 155.084 90.8993 155.506C92.628 155.752 93.3049 156.565 93.3049 158.398C93.3049 161.877 90.2562 163.728 87.4283 161.966C85.6613 160.864 85.2863 160.897 85.2863 162.151C85.2863 165.111 91.0459 165.789 94.6707 163.255L94.6713 163.255ZM109.557 163.312C113.973 160.226 115.321 150.219 111.878 146.079C111.222 145.29 109.07 144.644 107.098 144.644C102.694 144.644 99.6445 148.474 100.701 152.676C101.428 155.563 105.566 157.803 108.264 156.77C110.423 155.943 110.377 158.93 108.197 161.105C106.188 163.11 104.35 163.241 102.607 161.502C101.609 160.506 101.324 160.605 101.324 161.946C101.324 165.022 106 165.798 109.558 163.312L109.557 163.312ZM104.624 153.352C102.958 150.245 104.384 146.778 107.329 146.778C109.407 146.778 109.877 147.329 109.877 149.765C109.877 154.658 106.544 156.933 104.624 153.352ZM128.467 161.389C130.549 158.594 130.586 158.203 129.018 155.478C127.761 153.292 127.629 152.102 128.492 150.735C130.247 147.959 127.969 145.235 123.576 144.857C118.687 144.436 116.506 146.825 118.051 150.91C118.874 153.086 118.792 154.134 117.718 155.134C115.51 157.193 116.015 161.399 118.697 163.29C122.051 165.655 125.838 164.918 128.466 161.389H128.467ZM120.813 161.533C117.944 158.669 120.735 153.263 124.365 154.653C125.53 155.1 125.947 156.369 125.715 158.765C125.356 162.47 123.055 163.77 120.813 161.533ZM120.958 150.52C120.587 149.556 120.798 148.257 121.424 147.632C123.053 146.006 126.139 147.492 125.714 149.697C125.24 152.153 121.814 152.745 120.958 150.52Z" fill="#8DC63F"/>
</svg>
